<svg id="Capa_1" data-name="Capa 1" xmlns="http://www.w3.org/2000/svg" viewBox="0 0 48.84 36.31"><defs><style>.cls-1{fill:#fff;}</style></defs><title>cerrar sesion</title><path class="cls-1" d="M49.43,28.25c-.09.66-.16,1.32-.27,2A17.76,17.76,0,0,1,40.82,42.7,17.38,17.38,0,0,1,29,45.3a17.81,17.81,0,0,1-12.74-7.78,2.19,2.19,0,0,1,.48-3.09,2.16,2.16,0,0,1,3.11.51,14.47,14.47,0,0,0,5.5,4.74,13.74,13.74,0,0,0,16.81-4.09A13.19,13.19,0,0,0,44.91,26a13,13,0,0,0-7.54-10.95C32,12.47,26.9,13.19,22.3,17a19.89,19.89,0,0,0-2.44,2.73,2.27,2.27,0,0,1-2.76.74,2.21,2.21,0,0,1-.88-3.27,17.12,17.12,0,0,1,3.08-3.5,18.1,18.1,0,0,1,19.39-2.91,18,18,0,0,1,8.42,7.72,17.34,17.34,0,0,1,2.23,7.36c0,.17.06.34.09.51Z" transform="translate(-0.58 -9.15)"/><path class="cls-1" d="M8.2,25.09H33.59A2.22,2.22,0,1,1,34,29.5H8.19c.19.21.31.33.42.44.85.86,1.72,1.7,2.54,2.58A2.12,2.12,0,0,1,11.43,35a2,2,0,0,1-2.11,1.16,2.7,2.7,0,0,1-1.43-.66c-2.24-2.18-4.45-4.4-6.65-6.63a2.15,2.15,0,0,1,0-3.12q3.29-3.33,6.6-6.61A2.21,2.21,0,0,1,11,19.06a2.23,2.23,0,0,1,0,3.17c-.79.83-1.62,1.62-2.42,2.43Z" transform="translate(-0.58 -9.15)"/></svg>