<?xml version="1.0" encoding="utf-8"?>
<!-- Generator: Adobe Illustrator 24.0.2, SVG Export Plug-In . SVG Version: 6.00 Build 0)  -->
<svg version="1.1" id="Capa_1" xmlns="http://www.w3.org/2000/svg" xmlns:xlink="http://www.w3.org/1999/xlink" x="0px" y="0px"
	 viewBox="0 0 50 50" style="enable-background:new 0 0 50 50;" xml:space="preserve">
<style type="text/css">
	.st0{fill:#FFFFFF;}
</style>
<g>
	<g>
		<path class="st0" d="M23.2,0.7c1,0,2,0,3,0c0.1,0,0.2,0.1,0.4,0.1c1.3,0.2,2.5,0.3,3.8,0.6c9.4,2.1,16.8,10,18.4,19.5
			c0.1,0.9,0.2,1.8,0.4,2.7c0,1,0,2,0,3c0,0.1-0.1,0.2-0.1,0.4c-0.2,1.1-0.3,2.3-0.5,3.4c-2,9.5-10,17.2-19.5,18.7
			c-0.9,0.1-1.8,0.3-2.7,0.4c-1,0-2,0-3,0c-0.1,0-0.2-0.1-0.3-0.1c-1.1-0.2-2.2-0.3-3.3-0.5C10.1,47,2.3,38.9,0.8,29.4
			c-0.1-0.9-0.3-1.8-0.4-2.8c0-1,0-2,0-3c0.2-1.1,0.3-2.2,0.5-3.2c1.8-9.7,9.9-17.6,19.7-19.2C21.4,0.9,22.3,0.8,23.2,0.7z
			 M39.4,40.8c5.9-5.3,8.8-14.5,5.5-23.2C41.6,8.7,32.7,2.7,22.6,3.7c-9.3,0.9-17,7.8-18.9,17.1c-0.9,4.5-0.4,8.9,1.5,13.2
			c1.2,2.6,2.8,4.9,5,6.9c1.5-4.7,4.4-7.9,8.8-9.9c-2.8-1.9-4.4-4.5-4.7-7.9c-0.3-3.3,0.8-6.2,3.1-8.6c4.1-4.1,10.7-4,14.8,0
			c2.1,2,3.1,4.5,3.2,7.4c0,3.8-1.7,6.8-4.8,9C35,32.9,37.9,36.2,39.4,40.8z M24,46.6c4.9,0,8.9-1.2,12.4-3.4
			c0.4-0.3,0.5-0.5,0.4-0.9c-1.3-5.3-5.6-9.1-11.1-9.6c-6.1-0.5-11.7,3.7-13,9.7c-0.1,0.4,0,0.6,0.3,0.8
			C16.6,45.4,20.5,46.6,24,46.6z M17,22c0,4.3,3.4,7.8,7.7,7.8c4.3,0,7.8-3.4,7.8-7.7c0-4.3-3.4-7.7-7.7-7.8
			C20.5,14.2,17,17.7,17,22z"/>
	</g>
</g>
</svg>
